<?xml version="1.0" encoding="UTF-8"?><svg id="b" xmlns="http://www.w3.org/2000/svg" viewBox="0 0 22.5 15"><g id="c"><path d="M22.5,.94V13.12c0,1.04-.84,1.88-1.88,1.88H2.19c-1.21,0-2.19-.98-2.19-2.19V2.19c0-.52,.42-.94,.94-.94h1.56v-.31c0-.52,.42-.94,.94-.94H21.56c.52,0,.94,.42,.94,.94ZM2.5,12.81V3.12h-.62V12.81c0,.17,.14,.31,.31,.31s.31-.14,.31-.31ZM20,4.53v-1.56c0-.26-.21-.47-.47-.47H5.47c-.26,0-.47,.21-.47,.47v1.56c0,.26,.21,.47,.47,.47h14.06c.26,0,.47-.21,.47-.47Zm-8.12,3.75v-.31c0-.26-.21-.47-.47-.47H5.47c-.26,0-.47,.21-.47,.47v.31c0,.26,.21,.47,.47,.47h5.94c.26,0,.47-.21,.47-.47Zm0,3.75v-.31c0-.26-.21-.47-.47-.47H5.47c-.26,0-.47,.21-.47,.47v.31c0,.26,.21,.47,.47,.47h5.94c.26,0,.47-.21,.47-.47Zm8.12-3.75v-.31c0-.26-.21-.47-.47-.47h-5.94c-.26,0-.47,.21-.47,.47v.31c0,.26,.21,.47,.47,.47h5.94c.26,0,.47-.21,.47-.47Zm0,3.75v-.31c0-.26-.21-.47-.47-.47h-5.94c-.26,0-.47,.21-.47,.47v.31c0,.26,.21,.47,.47,.47h5.94c.26,0,.47-.21,.47-.47Z" fill="#fff"/></g></svg>