<?xml version="1.0" encoding="utf-8"?>
<!-- Generator: Adobe Illustrator 26.5.0, SVG Export Plug-In . SVG Version: 6.00 Build 0)  -->
<svg version="1.1" id="Layer_1" xmlns="http://www.w3.org/2000/svg" xmlns:xlink="http://www.w3.org/1999/xlink" x="0px" y="0px"
	 viewBox="0 0 45.7 46" style="enable-background:new 0 0 45.7 46;" xml:space="preserve">
<style type="text/css">
	.st0{fill-rule:evenodd;clip-rule:evenodd;fill:#1D1D1B;}
</style>
<g id="components_x2F_misc_x2F_logo-on-light">
	<path id="Combined-Shape" class="st0" d="M28.7,0.8C30.6,1.2,32.3,2,34,2.9c3,1.7,5.5,4,7.5,6.8c1.6,2.2,2.7,4.7,3.4,7.4
		c0.5,1.8,0.7,3.6,0.7,5.4c0.1,1.5-0.5,2.1-1.9,2.1l-9.9,0l0,0L4,24.6c-0.9,0-0.8,0-0.7,0.9c0.2,1.6,0.5,3.1,1.1,4.6
		c1,2.6,2.5,5,4.5,6.9c1.4,1.4,2.9,2.5,4.6,3.5c3.8,2.1,7.9,2.8,12.2,2.2c2.3-0.3,4.4-1.1,6.5-2.1c2-1,3.7-2.4,5.2-4
		c0.6-0.6,0.6-0.8-0.1-1.2c-1-0.6-2-1.3-3.1-2c-0.4-0.3-0.9-0.6-1.3-0.8c-0.1-0.1-0.4,0-0.6,0.1c-1,0.7-1.9,1.6-2.9,2.2
		c-1.1,0.6-2.4,1-3.6,1.4c-1.4,0.4-2.8,0.4-4.2,0.2c-1.9-0.2-3.7-0.8-5.4-1.8c-1.4-0.8-2.6-1.9-3.6-3.2c-0.4-0.5-0.6-1.1-0.4-1.7
		c0.1-0.6,0.5-1,1.2-1.1c0.6-0.1,1.2,0.1,1.6,0.6c2.3,3,5.4,4.4,9.1,4.1c2.4-0.2,4.6-1.2,6.2-3.1c0.3-0.4,0.7-0.8,1-1.1
		c0.4-0.5,1.3-0.5,1.9-0.2c1.6,1,3.2,2.1,4.8,3.1c1,0.6,2,1.3,3,1.9c1,0.6,1.2,1.7,0.5,2.6c-1.4,1.9-3.1,3.6-5,5
		c-1.9,1.4-4,2.5-6.2,3.2c-3.7,1.3-7.5,1.4-11.4,0.8c-2.3-0.4-4.5-1.2-6.6-2.3c-2.9-1.5-5.3-3.6-7.3-6.1c-1.6-2-2.7-4.2-3.6-6.6
		c-1.1-3.1-1.4-6.2-1.2-9.4c0.2-3.3,1.1-6.4,2.8-9.4C3.7,10.3,4.7,8.8,6,7.4C7.6,5.6,9.5,4.1,11.6,3C13.3,2,15,1.3,16.8,0.8
		c1.4-0.4,2.8-0.5,4.3-0.7C23.7-0.2,26.2,0.1,28.7,0.8z M21,3.2c-1.7,0.2-3.3,0.5-4.9,1.1c-2.8,1-5.2,2.6-7.3,4.6
		c-2.2,2.2-3.8,4.7-4.7,7.6c-0.5,1.4-0.7,3-1,4.4c-0.1,0.4,0.2,0.5,0.5,0.5c0.9,0,1.8,0,2.8,0c0.9,0,1.9,0,2.8,0
		c0.3,0,0.4-0.1,0.5-0.4c0.2-0.9,0.5-1.8,0.8-2.7c0.6-1.9,1.7-3.5,3.1-4.8c1.4-1.3,3-2.3,4.8-3c3.5-1.3,6.9-1,10.2,0.6
		c1.9,0.9,3.6,2.3,4.8,4.1c1.2,1.7,2,3.5,2.3,5.5c0.1,0.8,0.2,0.8,0.9,0.8c1.7,0,3.5,0,5.2,0c0.7,0,0.8-0.1,0.6-0.7
		c-0.3-1.3-0.6-2.6-0.9-3.9c-0.6-2.2-1.7-4.1-3-5.8c-1.7-2.2-3.7-4-6.1-5.4c-1.8-1-3.7-1.8-5.7-2.1C24.8,3.2,22.9,3.1,21,3.2z
		 M16.4,15.2c-1.8,1.4-2.9,3.3-3.4,5.5c-0.2,0.8-0.2,0.8,0.6,0.8l4.6,0l0,0l13.3,0c1.3,0,1.4,0,1-1.3c-1.2-3.8-3.8-6.1-7.5-7.1
		C21.8,12.3,18.9,13.2,16.4,15.2z M37.1,13c0.9,0,1.5,0.7,1.5,1.6c0,0.9-0.9,1.7-1.9,1.7c-0.9,0-1.5-0.7-1.5-1.6
		C35.2,13.8,36.1,13,37.1,13z M8.6,13c1,0,1.8,0.8,1.8,1.7c0,0.9-0.7,1.5-1.6,1.5c-1,0-1.8-0.8-1.8-1.7C7,13.5,7.8,13,8.6,13z
		 M14.6,6.9c1.1,0,1.6,0.7,1.7,1.8c0.1,0.9-0.6,1.6-1.5,1.6c-0.9,0-1.7-0.7-1.7-1.8C13.1,7.4,13.6,7,14.6,6.9z M31.1,6.9
		c0.8,0,1.6,0.7,1.6,1.6c0,0.9-0.8,1.8-1.8,1.8c-0.9,0-1.6-0.7-1.5-1.5C29.5,7.8,30,6.9,31.1,6.9z M22.8,4.7c1,0,1.5,0.6,1.5,1.8
		c0,1-0.6,1.7-1.5,1.7c-0.8,0-1.6-0.8-1.6-1.8C21.2,5.4,21.9,4.7,22.8,4.7z"/>
</g>
</svg>
