<?xml version="1.0" standalone="no"?>
<!DOCTYPE svg PUBLIC "-//W3C//DTD SVG 20010904//EN"
 "http://www.w3.org/TR/2001/REC-SVG-20010904/DTD/svg10.dtd">
<svg version="1.0" xmlns="http://www.w3.org/2000/svg"
 width="700.000000pt" height="700.000000pt" viewBox="0 0 700.000000 700.000000"
 preserveAspectRatio="xMidYMid meet">
<metadata>
Created by potrace 1.14, written by Peter Selinger 2001-2017
</metadata>
<g transform="translate(0.000000,700.000000) scale(0.100000,-0.100000)"
fill="#000000" stroke="none">
<path d="M3328 6995 c-1 -1 -37 -5 -78 -9 -41 -3 -86 -8 -100 -10 -14 -3 -65
-9 -115 -16 -154 -18 -167 -20 -280 -41 -224 -41 -527 -145 -755 -259 -299
-149 -491 -266 -695 -422 -65 -51 -215 -186 -289 -262 -229 -233 -388 -448
-518 -696 -30 -58 -78 -148 -105 -200 -67 -128 -134 -282 -184 -420 -41 -116
-112 -377 -124 -460 -4 -24 -8 -47 -10 -50 -1 -3 -6 -27 -9 -55 -4 -27 -11
-81 -17 -120 -30 -212 -32 -750 -4 -897 3 -11 7 -46 11 -77 35 -319 161 -715
341 -1075 126 -253 228 -412 402 -626 100 -124 385 -411 491 -496 41 -32 84
-67 94 -76 31 -29 274 -191 354 -237 308 -178 751 -352 1037 -407 11 -2 43 -8
70 -13 54 -11 106 -19 170 -26 22 -3 51 -7 65 -10 14 -2 68 -7 120 -10 52 -4
109 -9 125 -11 39 -5 443 -5 475 0 14 3 61 7 106 10 44 4 89 8 100 10 10 2 42
7 69 10 305 40 734 178 1040 334 451 230 852 560 1180 972 99 125 120 167 120
250 0 121 -36 164 -255 302 -80 50 -221 139 -315 198 -93 59 -294 187 -445
285 -351 228 -352 228 -443 229 -97 0 -131 -18 -220 -118 -136 -154 -281 -291
-370 -349 -183 -122 -399 -199 -625 -224 -88 -10 -320 -10 -401 0 -264 32
-517 137 -733 303 -73 57 -207 189 -268 264 -91 112 -145 143 -246 143 -148 0
-238 -96 -235 -251 1 -64 38 -136 123 -237 186 -223 409 -393 681 -520 146
-68 376 -141 502 -159 22 -4 54 -8 70 -11 17 -2 50 -7 75 -10 25 -2 65 -7 90
-10 65 -9 276 -9 340 0 107 13 295 61 375 94 11 5 67 26 125 46 217 78 302
128 535 315 167 134 176 141 218 149 40 9 76 -9 292 -151 164 -107 280 -182
418 -269 84 -53 102 -79 82 -119 -15 -29 -191 -208 -285 -290 -264 -231 -480
-361 -835 -505 -124 -50 -358 -130 -407 -139 -13 -3 -23 -5 -23 -6 0 -1 -7 -3
-16 -5 -10 -1 -48 -10 -85 -18 -38 -9 -87 -18 -109 -21 -22 -3 -56 -8 -75 -11
-256 -39 -655 -41 -885 -4 -328 53 -576 130 -860 269 -515 251 -984 670 -1275
1135 -177 284 -334 670 -376 925 -3 19 -8 38 -10 41 -5 8 -42 272 -46 321 -1
21 4 44 10 50 10 10 646 13 3135 14 2857 1 3127 2 3177 17 126 38 164 106 164
302 0 118 -10 316 -18 365 -3 14 -7 48 -11 75 -47 386 -247 961 -443 1275
-318 508 -690 886 -1174 1191 -173 110 -641 329 -701 329 -7 0 -17 3 -21 8 -4
4 -11 7 -14 8 -4 0 -27 6 -52 13 -25 7 -52 15 -60 16 -8 2 -71 18 -140 35 -69
18 -133 34 -142 36 -10 2 -28 6 -40 9 -13 3 -39 8 -58 10 -19 3 -46 8 -60 11
-30 7 -64 12 -200 28 -90 11 -512 20 -522 11z m407 -489 c39 -4 81 -8 95 -11
14 -2 45 -7 70 -10 51 -6 179 -29 290 -52 341 -69 748 -258 1065 -492 452
-336 844 -828 1025 -1286 47 -120 68 -193 121 -415 28 -118 52 -219 53 -225 2
-5 6 -28 10 -50 5 -22 14 -62 22 -90 7 -27 16 -63 18 -80 11 -63 34 -60 -498
-63 -466 -2 -486 -2 -504 16 -18 18 -23 39 -48 187 -28 168 -134 429 -249 615
-118 191 -213 311 -356 445 -258 243 -640 429 -1026 500 -246 45 -501 39 -743
-16 -518 -119 -1023 -465 -1295 -887 -65 -102 -136 -255 -185 -401 -23 -68
-44 -131 -46 -140 -22 -85 -75 -264 -83 -279 -6 -11 -18 -22 -28 -24 -10 -3
-226 -4 -480 -4 -450 1 -463 2 -477 21 -10 13 -13 32 -10 55 5 30 79 407 89
450 20 91 88 304 134 419 295 735 968 1367 1761 1654 111 40 269 87 340 101
14 3 36 7 50 11 50 11 186 35 232 40 25 4 68 10 95 14 56 8 455 6 558 -3z
m-75 -1467 c484 -83 870 -316 1105 -669 66 -99 142 -247 176 -340 73 -203 82
-265 39 -287 -20 -10 -329 -13 -1507 -13 -1448 0 -1483 0 -1493 19 -22 41 69
327 156 491 133 250 302 416 629 617 126 78 332 147 550 186 44 7 293 5 345
-4z"/>
<path d="M3433 6275 c-104 -24 -171 -106 -181 -220 -6 -80 9 -136 53 -197 116
-159 340 -130 400 52 24 71 17 195 -14 262 -43 89 -143 130 -258 103z"/>
<path d="M2175 5940 c-114 -29 -164 -94 -166 -217 -3 -97 25 -168 90 -226 129
-116 348 -61 390 98 16 61 3 162 -29 226 -51 100 -169 149 -285 119z"/>
<path d="M4675 5934 c-82 -30 -145 -120 -165 -236 -15 -83 -2 -135 46 -188
148 -163 439 -42 450 188 8 168 -170 295 -331 236z"/>
<path d="M1210 4999 c-86 -39 -131 -100 -135 -186 -10 -176 151 -304 338 -270
139 25 215 179 157 316 -57 131 -231 199 -360 140z"/>
<path d="M5582 5001 c-189 -65 -251 -283 -117 -416 96 -97 275 -80 378 35 68
75 86 175 48 262 -52 119 -173 166 -309 119z"/>
</g>
</svg>
